<svg xmlns="http://www.w3.org/2000/svg" xmlns:xlink="http://www.w3.org/1999/xlink" fill="none" version="1.1" width="16" height="16" viewBox="0 0 16 16"><defs><clipPath id="master_svg0_3_72285"><rect x="-0.5" y="-0.5" width="17" height="17" rx="0"/></clipPath></defs><g clip-path="url(#master_svg0_3_72285)"><path d="M0,0L16,0L16,16L0,16L0,0Z" fill="#FFFFFF" fill-opacity="0.009999999776482582"/><rect x="0" y="0" width="16" height="16" rx="0" fill="#FFFFFF" fill-opacity="0.009999999776482582"/><path d="M13.666667,11.500651375L12.6724663,11.500651375L12.6724663,12.500651375L13.666667,12.500651375Q14.288,12.500651375,14.727333,12.061317375Q15.166667,11.621984375,15.166667,11.000651375L15.166667,2.333984375Q15.166667,1.712663975,14.727335,1.273326673Q14.287997,0.833984375,13.666667,0.833984375L5,0.833984375Q4.37866938,0.833984375,3.939332008,1.273326792Q3.49999994,1.712663945,3.5,2.333984375L3.5,3.309664475L4.5,3.309664475L4.5,2.333984375Q4.5,1.833984375,5,1.833984375L13.666667,1.833984375Q14.166667,1.833984375,14.166667,2.333984375L14.166667,11.000651375Q14.166667,11.500651375,13.666667,11.500651375Z" fill-rule="evenodd" fill="#1890FF" fill-opacity="1"/><path d="M0.83349609375,11.667318375L0.83349609375,6.333984375Q0.83349609375,4.884236975,1.85862231375,3.859110715Q2.8837486937500003,2.833984375,4.33349609375,2.833984375L9.66683009375,2.833984375Q11.11657619375,2.833984375,12.14170309375,3.8591105949999998Q13.16683109375,4.884238075,13.16683109375,6.333984375L13.16683109375,11.667318375Q13.16683109375,13.117063475,12.14170309375,14.142191375Q11.11657519375,15.167319375,9.66683009375,15.167319375L4.33349609375,15.167319375Q2.88374999375,15.167319375,1.85862243375,14.142191375Q0.83349603375,13.117064475,0.83349609375,11.667318375ZM1.83349609375,11.667318375Q1.83349609375,12.702851275,2.56572929375,13.435084375Q3.2979628937500003,14.167318375,4.33349609375,14.167318375L9.66683009375,14.167318375Q10.70236209375,14.167318375,11.43459609375,13.435084375Q12.16683009375,12.702850375,12.16683009375,11.667318375L12.16683009375,6.333984375Q12.16683009375,5.298451175,11.43459609375,4.566217375Q10.70236299375,3.833984375,9.66683009375,3.833984375L4.33349609375,3.833984375Q3.29796229375,3.833984375,2.56572909375,4.566217575Q1.83349609375,5.298450375,1.83349609375,6.333984375L1.83349609375,11.667318375Z" fill="#1890FF" fill-opacity="1"/><path d="M9.347175360009766,7.3233066318847655L8.710474960009766,7.997573631884766L8.710547460009765,7.997642031884766Q8.644829960009766,8.067237131884767,8.609470160009765,8.156186131884766Q8.574110260009766,8.245135331884766,8.574110260009766,8.340854631884765Q8.574110060009765,8.390090431884765,8.583715460009765,8.438380031884765Q8.593320860009765,8.486669731884765,8.612162560009766,8.532157931884765Q8.631004360009765,8.577645731884765,8.658358360009766,8.618584131884766Q8.685712360009767,8.659522031884766,8.720527660009765,8.694337331884766Q8.755342460009766,8.729152231884765,8.796280660009765,8.756506231884766Q8.837218760009765,8.783860231884766,8.882706660009767,8.802701931884766Q8.928194760009767,8.821543731884766,8.976484560009766,8.831149131884766Q9.024774560009766,8.840754531884766,9.074010360009765,8.840754731884765Q9.177174060009765,8.840754731884765,9.271909460009766,8.799914831884767Q9.366645060009766,8.759074731884766,9.437473260009765,8.684067231884766L9.437546060009765,8.684135931884766L10.069692160009765,8.014692331884765Q10.576345960009766,7.504095931884765,10.566586460009766,6.776754331884765Q10.556879960009766,6.053384241884766,10.040430260009765,5.536934069884766Q9.523975360009766,5.020478961884765,8.800603860009765,5.010782571884766Q8.069377260009766,5.000980851884766,7.5572236600097655,5.513134540484765L5.786027100009766,7.356807031884766L5.786099200009765,7.356876231884765Q5.719019590009766,7.426706231884766,5.682864900009766,7.516532431884766Q5.6467102500097655,7.606358531884766,5.6467102500097655,7.703187931884766Q5.646710280009765,7.7524237318847655,5.656315710009766,7.800713531884766Q5.6659211500097655,7.849003331884766,5.6847629000097655,7.894491231884766Q5.7036046400097655,7.939979331884766,5.730958610009766,7.980917431884766Q5.758312580009766,8.021855831884766,5.793127600009766,8.056670631884765Q5.8279426100097655,8.091485531884766,5.8688807200097655,8.118839531884765Q5.909818830009765,8.146193531884766,5.955306830009766,8.165035231884765Q6.000794810009766,8.183877031884766,6.049084611009766,8.193482431884766Q6.097374406009766,8.203087831884766,6.146610260009766,8.203088031884766Q6.248658760009766,8.203087831884766,6.342542320009765,8.163090731884765Q6.436425890009765,8.123093631884766,6.5071212400097656,8.049499731884765L6.507193420009766,8.049569131884766L8.264330660009765,6.2202411918847655Q8.478023260009765,6.006548401884766,8.787200260009765,6.010692771884766Q9.104224660009766,6.014942291884766,9.333323760009765,6.244040731884765Q9.562422560009765,6.473139581884766,9.566676360009765,6.790171131884765Q9.570824860009765,7.0993523318847656,9.357145060009765,7.3130468318847655Q9.352086760009765,7.318105431884765,9.347175360009766,7.3233066318847655Z" fill-rule="evenodd" fill="#1890FF" fill-opacity="1"/><path d="M4.842463578759766,9.936337976884765Q4.912759978759766,9.866028006884765,4.950803378759765,9.774170636884765Q4.988846778759766,9.682313263884765,4.988846678759765,9.582889556884766Q4.988846578759766,9.533653702884765,4.9792412787597655,9.485363907884766Q4.969635678759765,9.437074106884765,4.950793978759766,9.391586126884766Q4.931952278759765,9.346098126884765,4.9045982787597655,9.305160016884766Q4.877244278759766,9.264221906884766,4.842429278759766,9.229406896884766Q4.8076142787597655,9.194591876884765,4.766676178759766,9.167237936884765Q4.725738078759766,9.139883966884765,4.680250078759766,9.121042216884765Q4.634762078759765,9.102200446884765,4.586472268759765,9.092595006884766Q4.538182438759765,9.082989576884765,4.4889466187597655,9.082989546884766Q4.389497758759766,9.082989546884766,4.297620828759766,9.121051456884766Q4.205743908759766,9.159113346884766,4.135429678759766,9.229441136884766L4.135358988759766,9.229370446884765Q3.9683681087597655,9.396393636884765,3.6135600607597658,9.739102376884766Q3.1029449087597656,10.249717656884766,3.0992692687597656,11.006987556884766Q3.0955581087597657,11.771574256884765,3.613559975759766,12.289576556884766Q4.130014958759766,12.806031456884766,4.853386878759766,12.815727956884766Q5.578073178759766,12.825441556884766,6.0875878787597655,12.322496456884766L7.8006977787597656,10.767255156884765L7.800630578759765,10.767181156884766Q7.878907678759766,10.696118156884765,7.921710978759766,10.599448156884765Q7.964514278759766,10.502778286884766,7.964513778759765,10.397055986884766Q7.964513778759765,10.347820046884765,7.954907878759766,10.299530266884766Q7.945302478759766,10.251240436884766,7.926460778759766,10.205752436884765Q7.907618478759765,10.160264496884766,7.8802647787597655,10.119326356884766Q7.852910978759765,10.078388276884766,7.818096178759766,10.043573256884766Q7.783280878759766,10.008758246884765,7.7423429787597655,9.981404306884766Q7.701404578759766,9.954050306884765,7.655917178759766,9.935208556884765Q7.610428778759766,9.916366816884766,7.562139078759765,9.906761406884765Q7.513849278759766,9.897155966884766,7.464613678759766,9.897155966884766Q7.371433278759765,9.897155966884766,7.284510378759766,9.930726886884766Q7.197587478759766,9.964297766884766,7.128596778759766,10.026930626884766L7.1285297787597655,10.026856746884766L5.407129678759766,11.589623956884765Q5.398194178759765,11.597735856884766,5.389660578759766,11.606269356884766Q5.175967378759766,11.819962256884766,4.8667899787597655,11.815817856884767Q4.549765288759765,11.811568456884766,4.320666848759766,11.582469956884765Q4.097570658759766,11.359373656884765,4.0992575287597655,11.011841256884766Q4.1009364087597655,10.665939556884766,4.320666848759766,10.446209076884765Q4.669320478759765,10.109656096884766,4.842534278759766,9.936408666884766L4.842463578759766,9.936337976884765Z" fill-rule="evenodd" fill="#1890FF" fill-opacity="1"/><path d="M6.550986408759766,8.020334061884766Q6.621288058759766,7.950023351884766,6.659334598759766,7.858162641884766Q6.697381078759766,7.766301922884765,6.6973811387597655,7.666873931884766Q6.697381078759766,7.617638077884766,6.6877756087597655,7.569348282884766Q6.678170148759766,7.521058481884766,6.659328398759766,7.475570501884766Q6.640486658759766,7.430082501884765,6.613132718759766,7.3891443918847655Q6.585778708759766,7.3482062818847655,6.5509637587597656,7.313391271884766Q6.516148748759766,7.278576251884766,6.4752106687597655,7.251222311884765Q6.434272528759766,7.223868341884765,6.388784588759766,7.205026591884765Q6.343296588759766,7.1861848218847655,6.295006778759766,7.176579381884766Q6.246717008759766,7.166973951884765,6.197481158759766,7.1669739218847655Q6.098036588759766,7.1669739218847655,6.0061629687597655,7.205032591884765Q5.9142893627597655,7.2430913418847656,5.843975903959765,7.313413801884765L5.843905194459766,7.313343111884766Q5.574319448759765,7.582963332884765,5.444866868759766,7.940650311884766Q5.320594188759766,8.284024771884766,5.345450668759765,8.652126851884766Q5.366949588759765,8.969794531884766,5.497709388759765,9.260918731884766Q5.632702918759765,9.561469031884766,5.867760246759766,9.796526931884765L5.867830877759766,9.796456331884766Q5.938142999759766,9.866768831884766,6.030010328759766,9.904821631884765Q6.121877668759765,9.942874231884765,6.221314128759766,9.942874231884765Q6.270549948759766,9.942873931884765,6.318839788759766,9.933268531884766Q6.367129568759766,9.923663131884766,6.4126175687597655,9.904821431884766Q6.458105568759765,9.885979631884766,6.499043638759765,9.858625631884767Q6.5399817187597655,9.831271631884766,6.574796798759766,9.796456831884765Q6.609611748759765,9.761641531884766,6.636965748759765,9.720703331884765Q6.6643196987597655,9.679765231884765,6.6831614387597655,9.634277331884766Q6.702003178759766,9.588789231884766,6.711608648759766,9.540499531884766Q6.721214118759765,9.492209831884766,6.721214178759766,9.442974131884766Q6.721214178759766,9.343537931884766,6.683161618759765,9.251670831884766Q6.645109058759766,9.159803831884766,6.574797148759766,9.089491731884765L6.5748679087597655,9.089421031884765Q6.469668268759766,8.984221231884765,6.409919258759766,8.851195531884766Q6.352569218759766,8.723511131884766,6.343178508759766,8.584754411884767Q6.332494558759766,8.426534591884765,6.385178868759765,8.280964071884766Q6.4388729887597655,8.132603141884765,6.551057098759766,8.020404751884765L6.550986408759766,8.020334061884766Z" fill-rule="evenodd" fill="#1890FF" fill-opacity="1"/><path d="M7.087072882509766,8.973481621884766Q7.016760792509766,8.903169541884765,6.9787082125097655,8.811302391884766Q6.9406555625097655,8.719435222884766,6.9406555625097655,8.619998931884766Q6.940655592509765,8.570763077884765,6.950261022509766,8.522473282884766Q6.9598664625097655,8.474183481884765,6.9787082125097655,8.428695501884766Q6.9975499525097655,8.383207501884765,7.024903922509766,8.342269391884766Q7.052257892509766,8.301331281884766,7.087072912509766,8.266516271884766Q7.1218879225097655,8.231701251884765,7.1628260325097655,8.204347311884765Q7.203764142509765,8.176993341884765,7.249252142509766,8.158151591884765Q7.294740122509766,8.139309821884765,7.343029923509766,8.129704381884766Q7.391319718509766,8.120098951884765,7.440555572509766,8.120098921884766Q7.539991863509766,8.120098921884766,7.631859032509766,8.158151571884765Q7.723726182509766,8.196204151884766,7.7940382625097655,8.266516241884766L7.794108982509766,8.266445521884766Q8.047147812509765,8.519484321884766,8.183547552509765,8.846845121884765Q8.315671982509766,9.163945021884766,8.320260702509765,9.506272431884765Q8.324875712509765,9.850565231884765,8.199829872509765,10.167726831884766Q8.069649402509766,10.497911931884765,7.817908912509766,10.749652431884765L7.817838252509766,10.749581831884765Q7.747526172509765,10.819893831884766,7.655658962509766,10.857946431884766Q7.563791772509766,10.895998931884765,7.464355453509766,10.895999231884765Q7.4151196035097655,10.895998931884765,7.366829812509765,10.886393531884766Q7.318540022509765,10.876788131884766,7.273052032509765,10.857946431884766Q7.227564032509766,10.839104631884766,7.186625932509766,10.811750631884767Q7.145687822509766,10.784396631884766,7.110872802509766,10.749581831884765Q7.076057822509766,10.714766531884766,7.048703852509766,10.673828331884765Q7.021349872509766,10.632890231884765,7.002508132509766,10.587402331884766Q6.983666362509766,10.541914231884766,6.974060892509765,10.493624531884766Q6.9644554825097655,10.445334831884766,6.964455452509766,10.396099131884766Q6.9644554825097655,10.296662731884766,7.002508102509766,10.204795431884765Q7.040560692509765,10.112928431884766,7.1108727125097655,10.042616531884766L7.110802022509765,10.042545831884766Q7.215577412509766,9.937770331884765,7.269524912509766,9.800939931884766Q7.322325532509765,9.667018431884765,7.320350492509766,9.519675611884766Q7.318349132509765,9.370369611884765,7.2604699925097655,9.231459141884766Q7.200156912509765,9.086707081884766,7.087002162509766,8.973552341884766L7.087072882509766,8.973481621884766Z" fill-rule="evenodd" fill="#1890FF" fill-opacity="1"/></g></svg>